<svg xmlns="http://www.w3.org/2000/svg" style="display: none;">
  <symbol id="icon-document" viewBox="0 0 16 12">
    <path d="M12.8 6.79999H9.59999C9.37909 6.79999 9.19999 6.97909 9.19999 7.19999C9.19999 7.42089 9.37999 7.59999 9.59999 7.59999H12.8C13.0209 7.59999 13.2 7.42089 13.2 7.19999C13.2 6.97909 13.02 6.79999 12.8 6.79999ZM5.59999 5.99999C6.48374 5.99999 7.19999 5.28374 7.19999 4.39999C7.19999 3.51624 6.48249 2.79999 5.59999 2.79999C4.71749 2.79999 3.99999 3.51749 3.99999 4.39999C3.99999 5.28249 4.71749 5.99999 5.59999 5.99999ZM5.59999 3.59999C6.04099 3.59999 6.39999 3.95899 6.39999 4.39999C6.39999 4.84099 6.03999 5.19999 5.59999 5.19999C5.15999 5.19999 4.79999 4.83999 4.79999 4.39999C4.79999 3.95999 5.15999 3.59999 5.59999 3.59999ZM6.39999 6.79999H4.79999C3.69549 6.79999 2.79999 7.69549 2.79999 8.79999C2.79999 9.01999 2.97899 9.2 3.19999 9.2C3.42099 9.2 3.59999 9.0209 3.59999 8.79999C3.59999 8.13749 4.13749 7.59999 4.79999 7.59999H6.39999C7.06274 7.59999 7.59999 8.13724 7.59999 8.79999C7.59999 9.0209 7.77909 9.2 7.99999 9.2C8.22089 9.2 8.39999 9.0209 8.39999 8.79999C8.39999 7.69499 7.50499 6.79999 6.39999 6.79999ZM13.6 0.399994H2.39999C1.51624 0.399994 0.799988 1.11624 0.799988 1.99999V9.99999C0.799988 10.8837 1.51624 11.6 2.39999 11.6H13.6C14.4837 11.6 15.2 10.8837 15.2 9.99999V1.99999C15.2 1.11624 14.4825 0.399994 13.6 0.399994ZM14.4 9.99999C14.4 10.441 14.041 10.8 13.6 10.8H2.39999C1.95899 10.8 1.59999 10.441 1.59999 9.99999V1.99999C1.59999 1.55899 1.95899 1.19999 2.39999 1.19999H13.6C14.041 1.19999 14.4 1.55899 14.4 1.99999V9.99999ZM12.8 5.19999H9.59999C9.37909 5.19999 9.19999 5.37909 9.19999 5.59999C9.19999 5.82089 9.37999 5.99999 9.59999 5.99999H12.8C13.0209 5.99999 13.2 5.82089 13.2 5.59999C13.2 5.37909 13.02 5.19999 12.8 5.19999ZM12.8 3.59999H9.59999C9.37909 3.59999 9.19999 3.77909 9.19999 3.99999C9.19999 4.22089 9.37999 4.39999 9.59999 4.39999H12.8C13.0209 4.39999 13.2 4.22089 13.2 3.99999C13.2 3.77909 13.02 3.59999 12.8 3.59999Z" fill="currentColor"/>
  </symbol>

  <symbol id="icon-eye" viewBox="0 0 16 12">
    <path d="M8 2.79999C6.2325 2.79999 4.8 4.23249 4.8 5.99999C4.8 7.76749 6.23325 9.2 8 9.2C9.766 9.2 11.2 7.76699 11.2 6.00249C11.2 4.23499 9.7675 2.79999 8 2.79999ZM8 8.39999C6.67675 8.39999 5.6 7.32349 5.6 5.99999C5.6 4.67649 6.67675 3.59999 8 3.59999C9.3235 3.59999 10.4 4.67549 10.4 6.00024C10.4 7.32249 9.3025 8.39999 8 8.39999ZM15.1125 5.55249C13.7575 2.48749 11.0725 0.399994 8 0.399994C4.9275 0.399994 2.24225 2.48999 0.886724 5.55249C0.839074 5.68499 0.799999 5.87499 0.799999 5.99999C0.799999 6.12442 0.839049 6.31499 0.886724 6.42574C2.243 9.5125 4.9275 11.6 8 11.6C11.0725 11.6 13.7575 9.51049 15.1125 6.44749C15.16 6.31499 15.2 6.10249 15.2 5.99999C15.2 5.87499 15.16 5.68499 15.1125 5.55249ZM14.38 6.10499C13.1075 9 10.6625 10.8 8 10.8C5.3375 10.8 2.8925 9.00049 1.625 6.11749C1.6145 6.08999 1.60125 6.02249 1.5775 6.00499C1.57887 5.97634 1.59215 5.91042 1.59674 5.89592C2.892 2.97749 5.3375 1.19999 8 1.19999C10.6625 1.19999 13.1075 2.99949 14.375 5.88249C14.3849 5.90949 14.3981 5.97532 14.3995 5.99357C14.3975 6.02249 14.385 6.08999 14.38 6.10499Z" fill="currentColor"/>
  </symbol>

  <symbol id="icon-fax" viewBox="0 0 14 14">
    <path d="M12.2 5.40001H5C4.86 5.40001 4.725 5.43001 4.6 5.47251V2.20001C4.6 1.75826 4.95825 1.40001 5.4 1.40001H10.835L11.8 2.36576V4.20001C11.8 4.42001 11.98 4.60001 12.2 4.60001C12.42 4.60001 12.6 4.42001 12.6 4.20001V2.36576C12.6 2.15351 12.515 1.95001 12.365 1.80001L11.4 0.834381C11.2275 0.684281 11.0475 0.600006 10.835 0.600006H5.4C4.5175 0.600006 3.8 1.31626 3.8 2.20001V3.87351C3.6525 3.83001 3.54 3.80001 3.4 3.80001H1.8C1.13725 3.80001 0.599998 4.33751 0.599998 5.00001V12.2C0.599998 12.8625 1.13725 13.4 1.8 13.4H3.4C3.70875 13.4 3.98725 13.2801 4.2 13.0885C4.4125 13.28 4.6925 13.4 5 13.4H12.2C12.8627 13.4 13.4 12.8628 13.4 12.2V6.60001C13.4 5.93751 12.8625 5.40001 12.2 5.40001ZM3.8 12.2C3.8 12.42 3.62 12.6 3.4 12.6H1.8C1.5795 12.6 1.4 12.42 1.4 12.2V5.00001C1.4 4.78001 1.5795 4.60001 1.8 4.60001H3.4C3.62 4.60001 3.8 4.78001 3.8 5.00001V12.2ZM12.6 12.2C12.6 12.4206 12.4205 12.6 12.2 12.6H5C4.78 12.6 4.6 12.42 4.6 12.2V6.60001C4.6 6.38001 4.78 6.20001 5 6.20001H12.2C12.42 6.20001 12.6 6.38001 12.6 6.60001V12.2ZM7.4 7.60001C7.06725 7.60001 6.8 7.86726 6.8 8.20001C6.8 8.53276 7.06725 8.80001 7.4 8.80001C7.73275 8.80001 8 8.53276 8 8.20001C8 7.86726 7.7325 7.60001 7.4 7.60001ZM7.4 10C7.06725 10 6.8 10.2673 6.8 10.6C6.8 10.9328 7.06725 11.2 7.4 11.2C7.73275 11.2 8 10.9328 8 10.6C8 10.2673 7.7325 10 7.4 10ZM9.8 7.60001C9.46725 7.60001 9.2 7.86726 9.2 8.20001C9.2 8.53276 9.46725 8.80001 9.8 8.80001C10.1327 8.80001 10.4 8.53276 10.4 8.20001C10.4 7.86726 10.1325 7.60001 9.8 7.60001ZM9.8 10C9.46725 10 9.2 10.2673 9.2 10.6C9.2 10.9328 9.46725 11.2 9.8 11.2C10.1327 11.2 10.4 10.9328 10.4 10.6C10.4 10.2673 10.1325 10 9.8 10Z" fill="currentColor"/>
  </symbol>

  <symbol id="icon-info" viewBox="0 0 14 14">
    <path d="M6.99998 0.599976C3.46498 0.599976 0.599976 3.46498 0.599976 6.99998C0.599976 10.535 3.46498 13.4 6.99998 13.4C10.535 13.4 13.4 10.535 13.4 6.99998C13.4 3.46498 10.535 0.599976 6.99998 0.599976ZM6.99998 3.79998C7.44173 3.79998 7.79998 4.15823 7.79998 4.59998C7.79998 5.04173 7.44173 5.39998 6.99998 5.39998C6.55823 5.39998 6.19998 5.04248 6.19998 4.59998C6.19998 4.15748 6.55748 3.79998 6.99998 3.79998ZM7.99998 10.2H5.99998C5.66998 10.2 5.39998 9.93248 5.39998 9.59997C5.39998 9.26748 5.66873 8.99998 5.99998 8.99998H6.39998V7.39998H6.19998C5.86873 7.39998 5.59998 7.13123 5.59998 6.79998C5.59998 6.46873 5.86998 6.19998 6.19998 6.19998H6.99998C7.33123 6.19998 7.59998 6.46873 7.59998 6.79998V8.99998H7.99998C8.33122 8.99998 8.59998 9.26873 8.59998 9.59997C8.59998 9.93122 8.33248 10.2 7.99998 10.2Z" fill="currentColor"/>
  </symbol>

  <symbol id="icon-location-check" viewBox="0 0 10 14">
    <path d="M5.00001 0.600006C2.34926 0.600006 0.200012 2.74926 0.200012 5.40001C0.200012 7.33526 0.874262 7.87576 4.50751 13.1425C4.62501 13.315 4.81251 13.4 5.00001 13.4C5.18751 13.4 5.37376 13.314 5.49301 13.142C9.12501 7.87501 9.80001 7.33501 9.80001 5.40001C9.80001 2.74926 7.65001 0.600006 5.00001 0.600006ZM5.00001 12.4475C1.49826 7.38501 1.00001 6.97751 1.00001 5.40001C1.00001 3.19451 2.79451 1.40001 5.00001 1.40001C7.20551 1.40001 9.00001 3.19451 9.00001 5.40001C9.00001 6.99751 8.51501 7.36751 5.00001 12.4475ZM6.71751 4.18251L4.33251 6.56751L3.28251 5.51751C3.12626 5.36126 2.87301 5.36126 2.71701 5.51751C2.56101 5.67376 2.56076 5.92701 2.71701 6.08301L4.05026 7.41651C4.12526 7.49151 4.22681 7.53371 4.33301 7.53371C4.43921 7.53371 4.54081 7.49151 4.61576 7.41651L7.28326 4.74901C7.43951 4.59276 7.43951 4.33951 7.28326 4.18351C7.12701 4.02751 6.87251 4.02751 6.71751 4.18251Z" fill="currentColor"/>
  </symbol>

  <symbol id="icon-mail" viewBox="0 0 14 10">
    <path d="M11.8 0.200012H2.2C1.31625 0.200012 0.599998 0.916262 0.599998 1.80001V8.20001C0.599998 9.08376 1.31625 9.80001 2.2 9.80001H11.8C12.6837 9.80001 13.4 9.08376 13.4 8.20001V1.80001C13.4 0.916262 12.6825 0.200012 11.8 0.200012ZM2.2 1.00001H11.8C12.241 1.00001 12.6 1.35901 12.6 1.80001V2.70026L7.72 6.36026C7.295 6.67826 6.70425 6.67826 6.27925 6.36026L1.4 2.70001V1.80001C1.4 1.36001 1.759 1.00001 2.2 1.00001ZM12.6 8.20001C12.6 8.64101 12.241 9.00001 11.8 9.00001H2.2C1.759 9.00001 1.4 8.64101 1.4 8.20001V3.67751L5.8 7.00001C6.153 7.26526 6.5765 7.40051 7 7.40051C7.4235 7.40051 7.8475 7.26501 8.2 7.00001L12.6 3.67751V8.20001Z" fill="currentColor"/>
  </symbol>

  <symbol id="icon-user" viewBox="0 0 12 14">
    <path d="M6.00002 7.00001C7.76753 7.00001 9.20003 5.56726 9.20003 3.80001C9.20003 2.03276 7.76753 0.600006 6.00002 0.600006C4.23252 0.600006 2.80002 2.03276 2.80002 3.80001C2.80002 5.56726 4.23252 7.00001 6.00002 7.00001ZM6.00002 1.40001C7.32352 1.40001 8.40003 2.47651 8.40003 3.80001C8.40003 5.12326 7.32352 6.20001 6.00002 6.20001C4.67652 6.20001 3.60002 5.12251 3.60002 3.80001C3.60002 2.47651 4.67752 1.40001 6.00002 1.40001ZM7.26753 8.20001H4.73252C2.34027 8.20001 0.400024 10.14 0.400024 12.5325C0.400024 13.011 0.788024 13.3993 1.26652 13.3993H10.734C11.2125 13.4 11.6 13.0125 11.6 12.5325C11.6 10.14 9.66003 8.20001 7.26753 8.20001ZM10.7325 12.6H1.26652C1.23002 12.6 1.20002 12.57 1.20002 12.5325C1.20002 10.585 2.78502 9.00001 4.73252 9.00001H7.26503C9.21502 9.00001 10.8 10.585 10.8 12.5325C10.8 12.57 10.77 12.6 10.7325 12.6Z" fill="currentColor"/>
  </symbol>

  <symbol id="icon-phone" viewBox="0 0 14 14">
    <path d="M12.715 8.86502L10.17 7.77352C9.7075 7.58132 9.165 7.71414 8.85125 8.10052L8.02275 9.11227C6.705 8.39502 5.6075 7.29752 4.89 5.98001L5.903 5.15026C6.29475 4.82726 6.42375 4.29626 6.224 3.82926L5.135 1.28426C4.9175 0.781982 4.37 0.506582 3.84 0.628857L1.47925 1.17651C0.961748 1.29451 0.599998 1.74751 0.599998 2.27801C0.599998 8.41002 5.59 13.4 11.7225 13.4C12.2532 13.4 12.7077 13.039 12.8267 12.5218L13.3717 10.16C13.4925 9.62752 13.2175 9.08252 12.715 8.86502ZM12.0475 12.3425C12.0131 12.4917 11.8764 12.6003 11.723 12.6003C6.0305 12.6003 1.4005 7.97027 1.4005 2.27776C1.4005 2.12306 1.50635 1.99076 1.659 1.95576L4.01925 1.40801C4.04425 1.40215 4.06925 1.39941 4.09385 1.39941C4.2247 1.39941 4.3466 1.47676 4.4001 1.60019L5.4896 4.14269C5.5475 4.28001 5.51 4.43751 5.395 4.53251L4.1325 5.56751C3.99 5.68501 3.945 5.88501 4.0275 6.05252C4.862 7.74777 6.25525 9.14002 7.95 9.97502C8.11602 10.0578 8.31825 10.0133 8.436 9.86954L9.47075 8.60704C9.56332 8.49297 9.72475 8.45547 9.85825 8.51094L12.3982 9.59995C12.5459 9.66402 12.6271 9.82417 12.5912 9.98045L12.0475 12.3425Z" fill="currentColor"/>
  </symbol>

  <symbol id="icon-chevron-up" viewBox="0 0 12 6">
    <path d="M11.495 5.87C11.415 5.9575 11.3075 6 11.2 6C11.1027 6 11.0055 5.96485 10.9285 5.89375L5.99999 1.345L1.07248 5.8725C0.909978 6.0225 0.656478 6.01313 0.507227 5.84985C0.357227 5.68735 0.367377 5.4351 0.529492 5.2851L5.7295 0.485098C5.8834 0.342898 6.1185 0.342898 6.2725 0.485098L11.4725 5.2851C11.6325 5.4575 11.645 5.7075 11.495 5.87Z" fill="currentColor"/>
  </symbol>
</svg>
